<?xml version="1.0" standalone="no"?>
<!DOCTYPE svg PUBLIC "-//W3C//DTD SVG 20010904//EN"
 "http://www.w3.org/TR/2001/REC-SVG-20010904/DTD/svg10.dtd">
<svg version="1.0" xmlns="http://www.w3.org/2000/svg"
 width="512.000000pt" height="512.000000pt" viewBox="0 0 512.000000 512.000000"
 preserveAspectRatio="xMidYMid meet">

<g transform="translate(0.000000,512.000000) scale(0.100000,-0.100000)"
fill="#000000" stroke="none">
<path d="M2507 4849 c-141 -33 -261 -159 -301 -316 -12 -44 -15 -48 -42 -46
-16 1 -105 3 -199 4 -558 5 -947 -202 -1192 -635 -100 -175 -202 -497 -228
-718 -8 -66 -15 -73 -72 -81 -61 -7 -141 -48 -198 -99 -200 -182 -207 -528
-16 -719 60 -60 142 -104 212 -115 24 -4 49 -11 55 -16 6 -4 15 -36 18 -71 4
-34 20 -120 37 -192 117 -514 347 -850 704 -1028 87 -43 226 -90 336 -113 65
-14 140 -18 334 -20 l250 -2 20 -49 c30 -74 61 -117 120 -172 203 -185 515
-87 612 191 28 82 25 265 -6 335 -13 29 -21 59 -18 67 4 11 819 722 1385 1208
l33 28 32 -24 c81 -60 115 -71 227 -71 101 0 108 1 168 34 162 88 255 288 222
480 -29 174 -141 311 -290 355 -116 35 -222 10 -346 -79 -20 -15 -48 8 -680
571 -362 322 -676 603 -697 623 l-38 37 16 64 c60 255 -63 498 -285 564 -58
17 -114 19 -173 5z m184 -170 c206 -103 202 -443 -6 -540 -48 -22 -142 -25
-189 -5 -50 21 -108 78 -136 133 -32 63 -39 180 -15 252 18 54 81 133 126 156
70 37 152 38 220 4z m-527 -348 c25 -5 32 -15 56 -83 14 -42 39 -93 54 -113
32 -41 36 -31 -62 -164 -337 -456 -752 -811 -1210 -1036 l-122 -59 -47 51
c-27 28 -74 67 -106 88 -52 32 -58 39 -53 63 3 15 10 61 16 102 60 391 232
730 464 916 138 110 332 194 516 224 41 6 82 13 90 15 29 5 375 3 404 -4z
m1322 -792 c335 -298 646 -576 692 -618 l83 -76 -24 -70 -24 -70 -1623 -3
c-1191 -1 -1626 1 -1636 9 -25 20 -15 29 68 68 202 93 427 235 627 394 234
188 519 492 701 749 43 62 59 77 75 73 147 -34 157 -35 214 -26 63 10 137 44
186 85 17 14 35 25 41 26 7 0 286 -244 620 -541z m1229 -638 c95 -42 160 -164
153 -286 -10 -161 -117 -275 -258 -275 -210 0 -332 271 -210 463 71 112 194
150 315 98z m-4070 -15 c185 -86 235 -359 95 -519 -83 -94 -201 -122 -306 -73
-200 93 -242 382 -80 540 80 77 194 98 291 52z m3595 -408 l24 -71 -26 -21
c-14 -12 -324 -280 -689 -596 -365 -316 -676 -585 -690 -598 l-27 -22 -49 30
c-88 55 -184 71 -284 48 -51 -12 -53 -11 -68 12 -48 74 -202 271 -299 381
-308 350 -654 618 -1051 813 -136 67 -131 64 -124 81 4 13 211 15 1633 15
l1627 0 23 -72z m-3169 -187 c376 -190 695 -443 990 -786 110 -128 259 -323
259 -341 0 -7 -17 -38 -39 -68 -38 -55 -71 -134 -87 -211 -9 -40 -9 -40 -69
-48 -95 -13 -386 0 -495 22 -368 75 -623 279 -789 632 -77 164 -140 388 -166
595 l-6 51 42 22 c66 35 121 84 159 145 19 30 42 55 51 56 8 0 76 -31 150 -69z
m1572 -1192 c71 -18 131 -69 169 -146 29 -59 33 -77 32 -143 -1 -164 -114
-290 -256 -290 -102 1 -181 54 -229 155 -25 51 -29 72 -29 141 0 65 5 89 25
130 61 123 173 183 288 153z"/>
</g>
</svg>
